<svg id="svg" xmlns="http://www.w3.org/2000/svg" xmlns:xlink="http://www.w3.org/1999/xlink" width="400" height="387.74533269506935" viewBox="0, 0, 400,387.74533269506935"><g id="svgg"><path id="path0" d="M84.634 0.211 C 47.385 2.869,18.013 24.549,1.696 61.430 C -0.886 67.267,-0.269 70.441,3.821 72.360 L 4.883 72.858 176.352 72.915 C 297.118 72.955,348.425 72.912,349.861 72.767 C 356.646 72.086,361.994 67.367,363.349 60.868 C 363.818 58.618,363.648 12.609,363.164 11.010 C 361.619 5.900,357.606 1.951,352.417 0.432 C 351.166 0.066,89.691 -0.150,84.634 0.211 M89.421 13.328 C 108.579 17.138,115.669 40.791,101.687 54.250 C 88.808 66.647,67.737 61.462,62.054 44.497 C 56.314 27.366,71.729 9.809,89.421 13.328 M81.666 25.257 C 68.485 29.130,70.591 48.419,84.275 49.159 C 93.731 49.671,100.006 40.003,95.799 31.403 C 93.393 26.482,86.983 23.695,81.666 25.257 M86.261 97.022 C 82.838 97.203,76.291 97.988,73.672 98.533 L 73.145 98.642 73.145 134.242 L 73.145 169.842 84.921 169.842 L 96.697 169.842 96.697 133.365 L 96.697 96.888 92.054 96.925 C 89.500 96.945,86.893 96.988,86.261 97.022 M108.569 133.364 L 108.569 169.842 130.543 169.842 L 152.517 169.842 152.866 168.262 C 153.851 163.808,155.689 160.645,160.018 155.960 C 171.107 143.955,176.405 140.536,184.415 140.216 C 191.779 139.921,196.868 142.160,203.447 148.588 C 205.026 150.131,206.868 151.764,207.540 152.217 C 216.941 158.550,230.618 154.522,234.991 144.133 C 236.144 141.395,236.309 140.324,236.477 134.514 C 236.730 125.796,238.247 121.546,242.842 116.692 C 248.859 110.335,255.335 108.666,271.432 109.324 C 280.764 109.705,285.179 111.339,290.061 116.221 C 294.725 120.885,296.792 126.318,296.793 133.917 C 296.794 139.372,297.288 142.129,298.805 145.141 C 303.199 153.866,314.442 157.745,323.304 153.592 C 325.631 152.502,326.416 151.903,329.791 148.648 C 333.989 144.600,335.988 143.162,339.222 141.867 C 347.404 138.591,355.827 139.997,363.002 145.837 L 363.630 146.348 363.577 127.698 L 363.523 109.047 362.892 107.239 C 361.181 102.336,357.683 98.976,352.670 97.419 L 351.269 96.984 229.919 96.935 L 108.569 96.886 108.569 133.364 M58.497 102.617 C 34.771 111.421,17.531 127.110,5.153 151.159 C -0.443 162.032,-0.990 164.602,1.630 167.706 C 3.546 169.976,1.550 169.842,33.549 169.842 L 61.273 169.842 61.273 135.759 C 61.273 117.013,61.209 101.679,61.130 101.684 C 61.051 101.689,59.866 102.109,58.497 102.617 M258.497 121.397 C 251.637 122.065,248.348 126.588,248.348 135.354 C 248.348 148.569,242.505 158.411,231.403 163.895 C 218.687 170.176,206.267 167.840,195.097 157.067 C 189.973 152.125,186.559 150.994,181.783 152.655 C 177.689 154.079,166.165 165.609,164.779 169.670 C 163.252 174.141,164.511 178.050,168.961 182.649 C 170.451 184.188,172.153 186.051,172.744 186.788 C 187.203 204.827,176.629 232.119,153.752 235.802 C 152.534 235.998,149.831 236.181,146.865 236.266 C 142.225 236.401,141.922 236.432,140.780 236.901 C 134.181 239.608,132.723 244.008,133.416 259.119 C 133.700 265.305,134.231 266.936,136.790 269.489 C 139.325 272.018,141.199 272.589,147.439 272.733 C 161.106 273.047,170.515 278.641,176.097 289.771 C 182.388 302.316,179.793 315.627,168.979 326.281 C 165.190 330.013,164.395 331.657,164.396 335.759 C 164.397 339.889,164.945 340.952,169.692 346.014 C 177.583 354.431,180.655 356.640,184.777 356.859 C 188.695 357.068,190.667 356.171,194.543 352.415 C 205.331 341.961,216.544 339.124,228.627 343.791 C 241.254 348.667,247.919 358.665,248.356 373.384 C 248.558 380.197,249.024 381.732,251.695 384.395 C 254.730 387.421,255.761 387.647,266.539 387.648 C 277.248 387.650,278.434 387.413,281.332 384.693 C 284.185 382.016,284.745 380.313,284.930 373.767 C 285.081 368.432,285.286 366.768,286.172 363.712 C 291.566 345.093,313.313 336.121,330.168 345.559 C 332.893 347.085,334.793 348.588,338.265 351.965 C 343.174 356.739,346.855 357.960,351.484 356.349 C 355.318 355.015,367.097 343.357,368.423 339.586 C 370.167 334.623,369.097 331.255,364.141 326.118 C 352.868 314.431,350.744 300.834,358.173 287.909 C 363.954 277.849,372.800 273.090,386.486 272.676 C 394.566 272.432,398.211 270.017,399.567 264.008 C 400.033 261.943,400.033 247.009,399.567 244.944 C 398.207 238.916,394.579 236.525,386.405 236.267 C 372.080 235.817,362.730 230.377,357.304 219.339 C 350.872 206.252,353.257 194.121,364.570 182.390 C 368.138 178.691,369.027 176.905,369.053 173.384 C 369.086 169.003,368.054 167.345,360.762 160.070 C 353.599 152.922,351.679 151.795,347.168 152.089 C 343.762 152.311,342.152 153.219,337.961 157.283 C 327.314 167.606,314.743 170.059,302.441 164.213 C 291.021 158.786,285.323 149.372,284.930 135.280 C 284.693 126.790,282.326 122.992,276.400 121.591 C 275.236 121.316,260.920 121.160,258.497 121.397 M86.836 193.903 C 47.682 196.231,17.134 218.531,1.157 256.449 C -0.802 261.098,0.114 264.500,3.788 266.213 L 4.691 266.635 63.443 266.684 L 122.195 266.734 122.084 266.205 C 121.213 262.042,121.202 246.943,122.068 242.778 C 123.730 234.786,129.621 228.107,137.245 225.572 C 140.255 224.571,141.607 224.387,147.152 224.226 C 153.089 224.053,154.191 223.851,157.109 222.405 C 167.048 217.480,170.506 204.595,164.365 195.366 L 163.307 193.777 125.550 193.811 C 104.784 193.830,87.362 193.872,86.836 193.903 M271.709 230.903 C 290.695 235.208,297.265 258.728,283.181 271.977 C 267.821 286.427,242.604 275.551,242.604 254.476 C 242.604 239.210,256.983 227.565,271.709 230.903 M264.249 242.502 C 254.803 244.291,251.195 256.152,258.008 263.019 C 265.561 270.633,278.310 265.731,278.747 255.045 C 279.079 246.961,272.188 240.999,264.249 242.502 M87.315 290.793 C 55.421 292.164,27.956 308.112,10.701 335.280 C 6.510 341.879,1.111 352.508,0.251 355.854 C -0.471 358.662,0.948 361.685,3.599 362.987 L 4.691 363.523 87.666 363.572 C 133.302 363.599,170.612 363.548,170.576 363.459 C 170.541 363.370,169.435 362.306,168.119 361.095 C 154.319 348.397,150.890 341.804,152.724 331.494 C 153.622 326.447,155.649 322.981,160.872 317.558 C 165.460 312.794,166.828 310.191,167.339 305.256 C 167.851 300.301,166.049 294.479,162.985 291.192 L 162.494 290.665 125.527 290.702 C 105.195 290.723,87.999 290.763,87.315 290.793 " stroke="none" fill="#000000" fill-rule="evenodd"></path></g></svg>